<svg width="500" height="400" viewBox="0 0 500 400" fill="none" xmlns="http://www.w3.org/2000/svg">
<path d="M311.921 399.92L500 291.332L188.079 111.246L0 219.833L311.921 399.92Z" fill="#2516DF"/>
<path d="M492.964 291.333L188.082 115.31L7.03906 219.832L311.923 395.858L492.964 291.333Z" fill="#A9A2F6"/>
<path d="M253.43 360.534L309.697 328.047L368.183 361.813L311.913 394.299L253.43 360.534ZM188.721 258.203L240.615 288.163L184.348 320.649L132.453 290.687L188.721 258.203ZM362.662 217.7L308.044 249.232L256.151 219.272L310.768 187.739L362.662 217.7ZM377.127 289.118L431.743 257.584L490.227 291.35L435.609 322.882L377.127 289.118ZM372.996 291.502L431.481 325.266L372.31 359.429L313.827 325.663L372.996 291.502ZM312.173 251.617L366.789 220.083L427.613 255.2L372.996 286.733L312.173 251.617ZM244.745 285.779L192.85 255.818L252.022 221.656L303.915 251.617L244.745 285.779ZM305.569 325.663L249.3 358.15L188.477 323.034L244.745 290.546L305.569 325.663ZM248.874 288.163L308.044 254.001L368.868 289.118L309.697 323.279L248.874 288.163ZM366.815 215.327L366.803 215.307L366.791 215.315L310.768 182.969L124.194 290.687L311.913 399.068L498.487 291.35L366.815 215.327Z" fill="#F0EFFB"/>
<path d="M52.167 159.634V163.364C52.2843 164.396 53.0592 165.475 54.5367 166.319C56.5546 167.492 59.2991 167.938 61.6217 167.586C62.606 167.445 63.5212 167.164 64.272 166.718L106.357 142.414C107.46 141.805 107.976 140.961 108.023 140.092L108.046 136.456L105.372 136.668C102.51 135.143 98.3578 135.002 95.9409 136.409L60.2834 156.983L54.3964 160.385L54.2791 159.634H52.167Z" fill="#C7784C"/>
<path d="M52.167 159.634V163.364C52.2843 164.396 53.0592 165.475 54.5367 166.319C56.5546 167.492 59.2992 167.938 61.6217 167.586V156.983H60.2834L54.3964 160.385L54.2791 159.634H52.167Z" fill="#DFCFB5"/>
<path d="M64.2715 163.207L106.366 138.903C108.861 137.463 108.547 134.948 105.667 133.285V133.284C102.786 131.621 98.4295 131.441 95.9348 132.882L53.8401 157.185C51.3455 158.625 51.659 161.141 54.5394 162.803C57.4199 164.466 61.7768 164.647 64.2715 163.207Z" fill="white"/>
<path d="M253.839 154.031L253.826 154.008L253.811 154.015L188.691 116.417L8.72803 220.04L234.922 350.582L414.884 246.961L253.839 154.031Z" fill="#E8E6F9"/>
<path d="M414.883 213.544L365.744 185.173V152.637L370.956 154.525L365.741 151.533V148.283L330.878 131.209L330.738 131.454L261.776 91.897L258.622 90.7549V88.4882L220.316 28.579L206.133 36.7733L174.685 45.1659L48.5513 118.038L51.9634 117.128L51.8636 117.186V139.768L8.72754 164.672V103.629L188.7 0L414.883 130.536V213.544Z" fill="url(#paint0_linear_601_1460)"/>
<path d="M414.884 241.767L365.745 213.397V184.751L414.884 213.121V241.767ZM8.72803 214.371V164.25L51.8641 139.346V170.189V189.915L8.72803 214.371Z" fill="url(#paint1_linear_601_1460)"/>
<path d="M414.883 246.947L365.744 218.588V214.71L366.79 215.315L366.802 215.307L366.815 215.327L414.883 243.081V246.947Z" fill="url(#paint2_linear_601_1460)"/>
<path d="M130.436 162.55L51.8638 117.187L177.997 44.3144L256.569 89.6787L130.436 162.55Z" fill="#A8A2F6"/>
<path d="M130.436 256.612V162.55L256.569 89.6789V183.741L130.436 256.612Z" fill="#7065F0"/>
<path d="M165.389 232.075L137.859 247.97V185.463L165.389 169.569V232.075Z" fill="#F7F7FD"/>
<path d="M51.8638 211.249V117.187L130.436 162.55V256.612L51.8638 211.249Z" fill="#A8A2F6"/>
<path d="M62.5098 139.579V200.056L73.0288 206.116V145.638L62.5098 139.579Z" fill="#F7F7FD"/>
<path d="M77.2246 148.069V208.546L87.7425 214.606V154.128L77.2246 148.069Z" fill="#F7F7FD"/>
<path d="M91.9395 156.559V217.037L102.459 223.096V162.619L91.9395 156.559Z" fill="#F7F7FD"/>
<path d="M106.654 165.049V225.526L117.172 231.586V171.109L106.654 165.049Z" fill="#F7F7FD"/>
<path d="M280.904 201.26L171.724 138.634L256.564 89.6736L365.744 152.301L280.904 201.26Z" fill="#7065F0"/>
<path d="M280.904 295.399V201.262L365.744 152.302V246.439L280.904 295.399Z" fill="#7065F0"/>
<path d="M171.724 232.772V138.635L280.904 201.262V295.399L171.724 232.772Z" fill="#A8A2F6"/>
<path d="M273.377 284.434L179.25 230.091V167.872L273.377 222.216V284.434Z" fill="#F7F7FD"/>
<path d="M151.491 162.145L147.195 157.273L166.75 145.974L171.724 148.827V150.937L151.491 162.145Z" fill="#5245ED"/>
<path d="M171.724 150.938V148.828L171.732 148.833L171.734 150.932L171.724 150.938Z" fill="#013BA1"/>
<path d="M48.5513 118.039L94.1819 105.861L220.316 32.9883L174.685 45.1668L48.5513 118.039Z" fill="#5598E9"/>
<path d="M132.488 165.769L94.1816 105.86L220.316 32.9876L258.621 92.8968L132.488 165.769Z" fill="#3F461D"/>
<path d="M258.622 88.4884V92.8968L132.489 165.769V161.36L258.622 88.4884Z" fill="#7065F0"/>
<path d="M105.442 138.383L91.1065 118.063L63.8702 124.119L51.8638 117.187L54.0866 116.562L94.1821 105.861L113.475 136.034L105.442 138.383Z" fill="#5245ED"/>
<path d="M51.8671 126.787L51.8638 117.186L63.8702 124.118L51.8671 126.787Z" fill="#5245ED"/>
<path d="M54.0864 116.562L94.0065 105.348L94.1819 105.623V105.861L54.0864 116.562Z" fill="#073CAE"/>
<path d="M48.5513 113.63L94.1819 101.453L220.316 28.5803L174.685 40.7577L48.5513 113.63Z" fill="#CBC7FA"/>
<path d="M132.488 161.361L94.1816 101.452L220.316 28.58L258.621 88.4892L132.488 161.361Z" fill="#A8A2F6"/>
<path d="M158.158 128.63L136.54 120.904L136.542 106.709L154.522 113.346L162.666 122.546L158.158 128.63Z" fill="#5245ED"/>
<path d="M136.539 105.61L128.723 101.098L136.491 96.6124L144.307 101.126L136.539 105.61Z" fill="#A8A2F6"/>
<path d="M136.541 105.568L128.146 100.719L136.489 95.9018L144.886 100.75L136.541 105.568Z" fill="#CBC7FA"/>
<path d="M136.542 107.026L144.886 102.207V100.75L136.542 105.568V107.026Z" fill="#2516DF"/>
<path d="M128.146 102.178L136.541 107.026V105.568L128.146 100.719V102.178Z" fill="#A8A2F6"/>
<path d="M142.024 101.116L136.53 104.296L136.512 104.277L131.017 101.098L136.494 97.9373L136.512 97.9559L142.024 101.116Z" fill="#2516DF"/>
<path d="M142.024 101.116L136.529 104.296L136.512 104.277V97.956L142.024 101.116Z" fill="#A8A2F6"/>
<path d="M136.54 120.903L144.307 116.419V101.126L136.54 105.61V120.903Z" fill="#2516DF"/>
<path d="M128.725 108.761L136.54 120.903V105.61L128.725 101.097V108.761Z" fill="#A8A2F6"/>
<path d="M136.544 97.5427L135.44 96.9048L136.536 96.2724L137.64 96.9092L136.544 97.5427Z" fill="#A8A2F6"/>
<path d="M136.544 105.197L137.64 104.564V96.9091L136.544 97.5427V105.197Z" fill="#2516DF"/>
<path d="M135.44 104.56L136.544 105.197V97.5427L135.44 96.9047V104.56Z" fill="#A8A2F6"/>
<path d="M136.544 97.5427L135.8 97.113L136.531 96.6932L137.282 97.1163L136.544 97.5427Z" fill="#096EA8"/>
<path d="M136.552 99.8914L136.544 99.887V97.5435L137.282 97.1172L137.637 97.3166V99.2677L136.552 99.8914Z" fill="#093B7D"/>
<path d="M136.544 99.8865L135.444 99.2464V97.3162L135.799 97.1134L136.544 97.5431V99.8865Z" fill="#096EA8"/>
<path d="M143.215 93.6868L142.111 93.0499L143.207 92.4164L144.312 93.0532L143.215 93.6868Z" fill="#A8A2F6"/>
<path d="M143.214 101.341L144.312 100.708V93.0531L143.214 93.6867V101.341Z" fill="#2516DF"/>
<path d="M142.111 100.704L143.215 101.341V93.6867L142.111 93.0499V100.704Z" fill="#A8A2F6"/>
<path d="M143.215 93.6868L142.465 93.2549L142.945 92.9732L143.691 93.4117L143.215 93.6868Z" fill="#096EA8"/>
<path d="M143.214 96.0408V93.6875L143.69 93.4124L144.312 93.7774V95.4072L143.214 96.0408Z" fill="#093B7D"/>
<path d="M143.211 96.0422L142.121 95.5359V93.4566L142.465 93.2549L143.215 93.6868V96.04L143.211 96.0422Z" fill="#096EA8"/>
<path d="M129.828 93.6672L128.723 93.0304L129.82 92.3969L130.924 93.0348L129.828 93.6672Z" fill="#A8A2F6"/>
<path d="M129.828 101.323L130.924 100.689V93.0351L129.828 93.6675V101.323Z" fill="#2516DF"/>
<path d="M128.723 100.685L129.828 101.323V93.6675L128.723 93.0307V100.685Z" fill="#A8A2F6"/>
<path d="M129.828 93.6672L129.337 93.3844L130.077 92.9526L130.564 93.243L129.828 93.6672Z" fill="#096EA8"/>
<path d="M129.828 96.0183V93.6672L130.564 93.243L130.921 93.4568V95.4078L129.828 96.0183Z" fill="#093B7D"/>
<path d="M129.825 96.0193L128.73 95.3858V93.7373L129.337 93.3843L129.828 93.6671V96.0182L129.825 96.0193Z" fill="#096EA8"/>
<path d="M136.545 97.5315L127.31 92.1991L136.487 86.9007L145.723 92.232L136.545 97.5315Z" fill="white"/>
<path d="M136.545 99.136L145.723 93.8365V92.2329L136.545 97.5324V99.136Z" fill="#A8A2F6"/>
<path d="M127.31 93.8036L136.545 99.136V97.5324L127.31 92.2V93.8036Z" fill="#CBC7FA"/>
<path d="M275.868 208.567L166.688 145.94L200.841 114.153L310.021 176.781L275.868 208.567Z" fill="#5598E9"/>
<path d="M261.775 91.8977L221.696 77.3868L330.877 140.014L370.955 154.525L261.775 91.8977Z" fill="#DDB79B"/>
<path d="M330.878 140.014L310.021 176.781L200.841 114.154L221.697 77.3868L330.878 140.014Z" fill="#433E44"/>
<path d="M280.907 213.543L280.904 203.882V213.452L280.907 213.448V213.543Z" fill="#02288E"/>
<path d="M280.907 213.543L171.733 150.933V148.835L275.868 208.568L280.903 203.882V213.541" fill="#5245ED"/>
<path d="M171.733 141.244V138.687L171.909 138.586L173.568 139.537L171.733 141.244Z" fill="#02288E"/>
<path d="M171.733 138.687V138.485L171.909 138.586L171.733 138.687Z" fill="#0852BE"/>
<path d="M275.868 208.567L171.733 148.834V141.244L173.568 139.537L280.907 201.095L280.903 203.881L275.868 208.567Z" fill="#073CAE"/>
<path d="M288.313 196.986L310.021 176.781L330.878 140.014L329.02 138.948L330.878 140.014L365.386 152.509L355.124 158.431L330.878 149.663L311.684 183.498L288.313 196.986Z" fill="#5245ED"/>
<path d="M280.907 213.448V203.879L288.313 196.987L311.683 183.498L310.021 186.43L280.907 213.448ZM365.741 162.271L355.123 158.431L365.386 152.509L365.741 152.637V162.271Z" fill="#5245ED"/>
<path d="M280.907 203.878V201.095L280.904 194.998L304.158 173.417L310.021 176.781L288.313 196.986L280.907 203.878Z" fill="#033093"/>
<path d="M365.74 151.533L330.737 131.454L330.878 131.209L365.74 148.284V151.533Z" fill="url(#paint3_linear_601_1460)"/>
<path d="M365.741 152.638L365.385 152.51L330.878 140.016L329.019 138.949L330.878 135.673L328.967 134.577L330.737 131.456L365.741 151.535V152.638Z" fill="#073962"/>
<path d="M310.021 176.781L304.158 173.417L307.05 170.733L310.021 172.437L329.019 138.948L330.878 140.014L310.021 176.781Z" fill="#02132B"/>
<path d="M280.904 213.452V203.883L280.907 203.879V213.449L280.904 213.452Z" fill="#000D5A"/>
<path d="M280.904 203.883V201.095L280.907 201.097V203.88L280.904 203.883Z" fill="#00136E"/>
<path d="M275.868 204.225L166.688 141.597L200.841 109.812L310.021 172.439L275.868 204.225Z" fill="#A8A2F6"/>
<path d="M261.775 87.5534L221.696 73.0436L330.877 135.671L370.955 150.181L261.775 87.5534Z" fill="#A8A2F6"/>
<path d="M330.878 135.672L310.021 172.438L200.841 109.811L221.697 73.0447L330.878 135.672Z" fill="#CBC7FA"/>
<path d="M94.1819 101.452V105.861L48.5513 118.039V113.63L94.1819 101.452Z" fill="#A8A2F6"/>
<path d="M94.1816 101.452V105.86L132.488 165.769V161.36L94.1816 101.452Z" fill="#A8A2F6"/>
<path d="M370.956 154.525V150.181L330.878 135.672L310.021 172.438L275.868 204.224V208.567L310.021 176.781L330.878 140.014L370.956 154.525Z" fill="#2516DF"/>
<path d="M275.868 208.567V204.224L166.688 141.596V145.94L275.868 208.567Z" fill="#A8A2F6"/>
<path d="M231.376 122.124V99.6586L225.213 96.0975L223.93 84.0396H231.376L254.28 96.7924L253.891 100.094L248.013 109.655L231.376 122.124Z" fill="#5245ED"/>
<path d="M238.888 96.2269V108.967L231.376 122.124V99.6587L238.888 96.2269Z" fill="#2516DF"/>
<path d="M231.376 122.124L216.483 113.519V91.0545L231.376 99.6586V122.124Z" fill="#A8A2F6"/>
<path d="M229.291 99.1511L212.547 89.4761L224.207 82.9544L240.952 92.6295L229.291 99.1511Z" fill="#CBC7FA"/>
<path d="M229.291 98.4065L212.547 88.7303L224.207 82.2087L240.952 91.8838L229.291 98.4065Z" fill="white"/>
<path d="M230.411 100.954L238.889 96.2265L240.952 92.6303L229.291 99.1519L230.411 100.954Z" fill="#2516DF"/>
<path d="M212.547 89.4769L213.668 91.2777L230.411 100.954L229.291 99.1519L212.547 89.4769Z" fill="#A8A2F6"/>
<path d="M229.291 99.1511V98.4058L240.952 91.883V92.6295L229.291 99.1511Z" fill="#A8A2F6"/>
<path d="M229.291 99.1511V98.4058L212.547 88.7296V89.4761L229.291 99.1511Z" fill="#CBC7FA"/>
<path d="M217.807 113.144V95.32L230.055 102.386V120.211L217.807 113.144Z" fill="#A8A2F6"/>
<path d="M219.242 97.8115V112.317L228.619 117.719V103.214L219.242 97.8115Z" fill="white"/>
<path d="M220.858 98.7443V111.63L228.619 116.098V117.719L219.242 112.318V97.8115L220.858 98.7443Z" fill="#2516DF"/>
<path d="M220.858 111.63L219.242 112.318L228.619 117.719V116.098L220.858 111.63Z" fill="#CBC7FA"/>
<path d="M222.052 112.319H219.242L220.858 111.63V98.7448L222.084 99.4496L222.052 112.319Z" fill="#0C59BE"/>
<path d="M262.833 140.135L257.493 121.856L255.387 102.05H262.833L285.738 114.803L285.348 118.105L279.469 127.666L262.833 140.135Z" fill="#5245ED"/>
<path d="M270.345 114.236V126.977L262.833 140.135V117.67L270.345 114.236Z" fill="#2516DF"/>
<path d="M262.833 140.135L247.94 131.529V109.065L262.833 117.67V140.135Z" fill="#A8A2F6"/>
<path d="M260.748 117.164L244.003 107.489L255.665 100.968L272.408 110.644L260.748 117.164Z" fill="#CBC7FA"/>
<path d="M260.748 116.416L244.003 106.741L255.665 100.22L272.408 109.895L260.748 116.416Z" fill="white"/>
<path d="M261.867 118.966L270.345 114.237L272.408 110.643L260.748 117.164L261.867 118.966Z" fill="#2516DF"/>
<path d="M244.003 107.489L245.123 109.289L261.867 118.966L260.748 117.164L244.003 107.489Z" fill="#A8A2F6"/>
<path d="M260.748 117.164V116.418L272.408 109.896V110.644L260.748 117.164Z" fill="#A8A2F6"/>
<path d="M260.748 117.164V116.418L244.003 106.743V107.489L260.748 117.164Z" fill="#CBC7FA"/>
<path d="M249.262 131.157V113.332L261.511 120.399V138.223L249.262 131.157Z" fill="#A8A2F6"/>
<path d="M250.698 115.824V130.329L260.075 135.732V121.226L250.698 115.824Z" fill="white"/>
<path d="M252.314 116.756V129.643L260.075 134.111V135.732L250.698 130.33V115.824L252.314 116.756Z" fill="#2516DF"/>
<path d="M252.314 129.643L250.698 130.33L260.075 135.732V134.111L252.314 129.643Z" fill="#CBC7FA"/>
<path d="M250.698 130.329H253.51L253.541 117.46L252.314 116.756V129.642L250.698 130.329Z" fill="#2516DF"/>
<path d="M294.29 158.147L288.95 139.869L286.843 120.063H294.29L317.194 132.815L316.804 136.117L310.924 145.678L294.29 158.147Z" fill="#5245ED"/>
<path d="M301.801 132.25V144.991L294.29 158.147V135.683L301.801 132.25Z" fill="#2516DF"/>
<path d="M294.29 158.147L279.397 149.541V127.077L294.29 135.683V158.147Z" fill="#A8A2F6"/>
<path d="M292.203 135.176L275.459 125.5L287.121 118.979L303.864 128.655L292.203 135.176Z" fill="#CBC7FA"/>
<path d="M292.203 134.429L275.459 124.754L287.121 118.233L303.864 127.909L292.203 134.429Z" fill="white"/>
<path d="M293.323 136.978L301.801 132.25L303.864 128.655L292.203 135.176L293.323 136.978Z" fill="#2516DF"/>
<path d="M275.459 125.501L276.58 127.302L293.323 136.978L292.203 135.176L275.459 125.501Z" fill="#A8A2F6"/>
<path d="M292.203 135.176V134.429L303.864 127.909V128.655L292.203 135.176Z" fill="#A8A2F6"/>
<path d="M292.203 135.176V134.429L275.459 124.754V125.5L292.203 135.176Z" fill="#CBC7FA"/>
<path d="M280.718 149.169V131.343L292.967 138.41V156.234L280.718 149.169Z" fill="#A8A2F6"/>
<path d="M282.154 133.836V148.341L291.531 153.743V139.238L282.154 133.836Z" fill="white"/>
<path d="M283.77 134.768V147.655L291.53 152.122V153.743L282.154 148.342V133.835L283.77 134.768Z" fill="#2516DF"/>
<path d="M283.77 147.655L282.154 148.342L291.53 153.743V152.122L283.77 147.655Z" fill="#CBC7FA"/>
<path d="M282.154 148.342H284.966L284.996 135.473L283.77 134.768V147.654L282.154 148.342Z" fill="#2516DF"/>
<path d="M483.098 250.701L395.231 199.971V195.452L483.098 246.182V250.701Z" fill="#2516DF"/>
<path d="M483.098 250.701L485.084 249.556V245.036L483.098 246.182V250.701Z" fill="#004899"/>
<path d="M485.084 245.036L483.098 246.182L395.231 195.452L397.219 194.307L485.084 245.036Z" fill="#A8A2F6"/>
<path d="M483.098 293.852L395.231 243.124V238.605L483.098 289.333V293.852Z" fill="#2516DF"/>
<path d="M483.098 293.852L485.084 292.707V288.188L483.098 289.333V293.852Z" fill="#004899"/>
<path d="M485.084 288.187L483.098 289.333L395.231 238.604L397.219 237.459L485.084 288.187Z" fill="#A8A2F6"/>
<path d="M406.875 256.154L399.844 252.094V188.87L403.359 186.622L406.875 192.929V256.154Z" fill="#A8A2F6"/>
<path d="M406.875 256.154L408.932 254.973V191.749L406.875 192.929V256.154Z" fill="#2516DF"/>
<path d="M406.876 192.928L408.932 191.749L405.417 185.443L403.359 186.622L406.876 192.928Z" fill="#CBC7FA"/>
<path d="M404.877 205.031C404.877 205.993 404.197 206.381 403.359 205.896C402.52 205.413 401.841 204.24 401.841 203.279C401.841 202.316 402.52 201.928 403.359 202.413C404.197 202.897 404.877 204.069 404.877 205.031Z" fill="#004899"/>
<path d="M404.877 246.871C404.877 247.834 404.197 248.221 403.359 247.736C402.52 247.252 401.841 246.08 401.841 245.118C401.841 244.157 402.52 243.77 403.359 244.253C404.197 244.736 404.877 245.909 404.877 246.871Z" fill="#004899"/>
<path d="M418.212 262.705L411.182 258.647V195.423L414.697 193.176L418.212 199.482V262.705Z" fill="#A8A2F6"/>
<path d="M418.212 262.705L420.268 261.526V198.302L418.212 199.482V262.705Z" fill="#2516DF"/>
<path d="M418.211 199.482L420.268 198.303L416.753 191.996L414.696 193.176L418.211 199.482Z" fill="#CBC7FA"/>
<path d="M416.215 211.583C416.215 212.545 415.536 212.933 414.697 212.449C413.859 211.965 413.179 210.793 413.179 209.83C413.179 208.869 413.859 208.481 414.697 208.965C415.536 209.45 416.215 210.622 416.215 211.583Z" fill="#004899"/>
<path d="M416.215 253.424C416.215 254.387 415.536 254.775 414.697 254.29C413.859 253.807 413.179 252.635 413.179 251.673C413.179 250.71 413.859 250.322 414.697 250.807C415.536 251.29 416.215 252.463 416.215 253.424Z" fill="#004899"/>
<path d="M429.55 269.259L422.52 265.199V201.975L426.035 199.728L429.55 206.035V269.259Z" fill="#A8A2F6"/>
<path d="M429.55 269.259L431.608 268.079V204.855L429.55 206.035V269.259Z" fill="#2516DF"/>
<path d="M429.55 206.035L431.607 204.854L428.092 198.549L426.035 199.728L429.55 206.035Z" fill="#CBC7FA"/>
<path d="M427.553 218.137C427.553 219.099 426.873 219.487 426.035 219.003C425.196 218.52 424.516 217.347 424.516 216.385C424.516 215.423 425.196 215.035 426.035 215.52C426.873 216.003 427.553 217.176 427.553 218.137Z" fill="#004899"/>
<path d="M427.553 259.979C427.553 260.941 426.873 261.328 426.035 260.845C425.196 260.359 424.516 259.188 424.516 258.225C424.516 257.263 425.196 256.876 426.035 257.359C426.873 257.844 427.553 259.017 427.553 259.979Z" fill="#004899"/>
<path d="M440.888 275.813L433.858 271.754V208.529L437.373 206.282L440.888 212.588V275.813Z" fill="#A8A2F6"/>
<path d="M440.888 275.813L442.945 274.633V211.409L440.888 212.588V275.813Z" fill="#2516DF"/>
<path d="M440.887 212.588L442.945 211.409L439.429 205.103L437.372 206.282L440.887 212.588Z" fill="#CBC7FA"/>
<path d="M438.891 224.691C438.891 225.653 438.21 226.041 437.373 225.557C436.534 225.072 435.854 223.901 435.854 222.939C435.854 221.976 436.534 221.589 437.373 222.073C438.21 222.557 438.891 223.729 438.891 224.691Z" fill="#004899"/>
<path d="M438.891 266.531C438.891 267.494 438.21 267.882 437.373 267.397C436.534 266.914 435.854 265.741 435.854 264.779C435.854 263.817 436.534 263.429 437.373 263.914C438.21 264.397 438.891 265.569 438.891 266.531Z" fill="#004899"/>
<path d="M452.226 282.366L445.194 278.307V215.083L448.711 212.836L452.226 219.142V282.366Z" fill="#A8A2F6"/>
<path d="M452.226 282.366L454.283 281.186V217.963L452.226 219.142V282.366Z" fill="#2516DF"/>
<path d="M452.225 219.142L454.282 217.964L450.766 211.657L448.71 212.836L452.225 219.142Z" fill="#CBC7FA"/>
<path d="M450.228 231.244C450.228 232.206 449.548 232.593 448.71 232.109C447.872 231.626 447.192 230.452 447.192 229.491C447.192 228.529 447.872 228.142 448.71 228.625C449.548 229.109 450.228 230.282 450.228 231.244Z" fill="#004899"/>
<path d="M450.228 273.086C450.228 274.047 449.548 274.434 448.71 273.951C447.872 273.466 447.192 272.295 447.192 271.332C447.192 270.37 447.872 269.983 448.71 270.468C449.548 270.951 450.228 272.124 450.228 273.086Z" fill="#004899"/>
<path d="M463.562 288.919L456.531 284.861V221.636L460.046 219.389L463.562 225.695V288.919Z" fill="#A8A2F6"/>
<path d="M463.562 288.919L465.619 287.74V224.516L463.562 225.695V288.919Z" fill="#2516DF"/>
<path d="M463.562 225.695L465.619 224.515L462.104 218.209L460.047 219.389L463.562 225.695Z" fill="#CBC7FA"/>
<path d="M461.566 237.798C461.566 238.759 460.887 239.147 460.047 238.663C459.21 238.179 458.53 237.008 458.53 236.045C458.53 235.084 459.21 234.695 460.047 235.18C460.887 235.664 461.566 236.836 461.566 237.798Z" fill="#004899"/>
<path d="M461.566 279.638C461.566 280.6 460.887 280.988 460.047 280.502C459.21 280.019 458.53 278.847 458.53 277.885C458.53 276.923 459.21 276.536 460.047 277.02C460.887 277.503 461.566 278.675 461.566 279.638Z" fill="#004899"/>
<path d="M474.901 295.473L467.871 291.413V228.189L471.386 225.942L474.901 232.248V295.473Z" fill="#A8A2F6"/>
<path d="M474.901 295.473L476.957 294.292V231.069L474.901 232.248V295.473Z" fill="#2516DF"/>
<path d="M474.9 232.248L476.957 231.069L473.441 224.763L471.385 225.943L474.9 232.248Z" fill="#CBC7FA"/>
<defs>
<linearGradient id="paint0_linear_601_1460" x1="211.806" y1="80.0934" x2="211.806" y2="189.715" gradientUnits="userSpaceOnUse">
<stop stop-color="#F7F7FD"/>
<stop offset="1" stop-color="#E8E6F9"/>
</linearGradient>
<linearGradient id="paint1_linear_601_1460" x1="211.807" y1="80.0952" x2="211.807" y2="189.717" gradientUnits="userSpaceOnUse">
<stop stop-color="#FFFCF7"/>
<stop offset="1" stop-color="#E8E6F9"/>
</linearGradient>
<linearGradient id="paint2_linear_601_1460" x1="211.805" y1="80.0944" x2="211.805" y2="189.716" gradientUnits="userSpaceOnUse">
<stop stop-color="#E8E6F9"/>
<stop offset="1" stop-color="#D1CEF3"/>
</linearGradient>
<linearGradient id="paint3_linear_601_1460" x1="211.806" y1="80.0936" x2="211.806" y2="189.715" gradientUnits="userSpaceOnUse">
<stop stop-color="#0850A1"/>
<stop offset="1" stop-color="#074CA1"/>
</linearGradient>
</defs>
</svg>
